<?xml version="1.0" standalone="no"?>
<!DOCTYPE svg PUBLIC "-//W3C//DTD SVG 20010904//EN"
 "http://www.w3.org/TR/2001/REC-SVG-20010904/DTD/svg10.dtd">
<svg version="1.0" xmlns="http://www.w3.org/2000/svg"
 width="612.000000pt" height="612.000000pt" viewBox="0 0 612.000000 612.000000"
 preserveAspectRatio="xMidYMid meet">

<g transform="translate(0.000000,612.000000) scale(0.100000,-0.100000)"
fill="#000000" stroke="none">
<path d="M2810 5230 c-675 -83 -1256 -459 -1623 -1050 -152 -247 -265 -587
-298 -899 -15 -142 -7 -440 16 -571 130 -766 641 -1398 1360 -1683 274 -109
548 -154 869 -144 334 10 583 72 881 217 281 136 512 316 720 560 124 146 155
196 155 252 0 35 4 48 14 48 8 0 16 -10 18 -22 3 -18 14 -4 50 62 129 235 218
512 254 792 22 175 15 471 -15 638 -166 924 -874 1626 -1801 1785 -112 20
-486 28 -600 15z m570 -145 c721 -120 1321 -603 1590 -1281 166 -417 183 -938
45 -1360 -39 -118 -134 -326 -200 -439 -25 -42 -43 -81 -39 -87 4 -6 10 -6 17
1 14 14 57 14 57 1 0 -5 -9 -10 -20 -10 -11 0 -20 -7 -20 -15 0 -8 9 -15 20
-15 11 0 20 -4 20 -10 0 -14 -43 -13 -58 2 -9 9 -12 9 -12 0 0 -7 -7 -12 -15
-12 -8 0 -15 8 -15 17 0 15 -2 14 -17 -3 -33 -35 -90 -109 -100 -128 -16 -29
-201 -213 -278 -276 -270 -221 -618 -376 -980 -436 -167 -28 -487 -26 -659 5
-419 74 -776 256 -1080 551 -271 263 -453 569 -551 926 -55 202 -69 313 -69
544 0 221 8 293 56 490 39 160 85 285 165 440 313 612 894 1018 1581 1106 134
17 430 11 562 -11z m1499 -3175 c1 -27 -3 -50 -8 -50 -9 0 -20 88 -12 96 12
12 18 -1 20 -46z"/>
<path d="M2920 4283 c-52 -9 -157 -47 -220 -79 -181 -94 -318 -261 -382 -464
-20 -65 -23 -95 -22 -225 0 -142 2 -155 32 -238 83 -236 256 -407 496 -490 85
-29 100 -31 231 -32 108 0 154 4 200 18 264 81 453 259 538 505 24 72 30 108
34 207 10 239 -57 413 -222 579 -110 112 -234 180 -380 212 -56 12 -248 17
-305 7z"/>
<path d="M2928 2619 c-340 -30 -676 -205 -907 -474 -94 -107 -209 -306 -241
-412 -12 -40 -12 -42 21 -72 60 -56 212 -167 300 -219 182 -109 366 -180 594
-229 121 -25 147 -27 360 -27 247 0 327 9 510 60 275 77 549 227 743 405 l45
43 -28 82 c-34 97 -54 128 -78 118 -9 -3 -17 -12 -17 -20 0 -8 -7 -14 -15 -14
-11 0 -15 12 -15 50 0 38 4 50 15 50 22 0 19 12 -17 61 -30 42 -32 43 -41 21
-6 -12 -18 -22 -29 -22 -23 0 -23 19 -1 35 14 11 15 16 4 43 -17 39 -46 67
-56 52 -9 -15 2 -60 15 -60 6 0 10 -5 10 -11 0 -6 -12 -9 -27 -7 -25 3 -29 8
-33 48 -3 25 -8 44 -12 43 -5 -2 -12 -3 -18 -3 -15 0 -12 -67 3 -73 9 -4 9 -8
-2 -16 -26 -17 -53 6 -50 42 1 18 -1 40 -5 49 -4 9 -3 26 4 37 12 24 40 28 40
7 0 -21 30 -28 37 -9 14 35 -203 201 -372 285 -155 77 -302 119 -484 138 -112
11 -124 11 -253 -1z m910 -448 c2 -6 -1 -11 -8 -11 -6 0 -8 -5 -5 -10 9 -15
-14 -40 -36 -40 -11 0 -19 -4 -19 -10 0 -5 14 -10 30 -10 38 0 49 -23 25 -50
-21 -23 -67 -26 -83 -7 -11 13 -10 62 1 73 3 4 1 16 -5 27 -9 17 -7 24 10 38
23 18 84 19 90 0z m84 7 c9 -7 18 -22 20 -33 2 -17 -3 -21 -34 -23 -28 -2 -36
-7 -31 -18 4 -11 14 -13 35 -8 23 5 29 3 26 -7 -7 -22 -70 -24 -85 -3 -19 26
-16 61 7 84 23 23 40 25 62 8z m-102 -228 c0 -5 -13 -10 -30 -10 -27 0 -30 -3
-30 -30 0 -27 3 -30 30 -30 17 0 30 -4 30 -10 0 -5 -16 -10 -35 -10 -50 0 -73
50 -39 84 17 18 74 22 74 6z m210 -40 l0 -50 -35 0 c-32 0 -35 2 -35 31 0 22
5 32 20 36 11 3 20 12 20 19 0 8 7 14 15 14 11 0 15 -12 15 -50z m40 40 c0 -5
-7 -10 -15 -10 -8 0 -15 5 -15 10 0 6 7 10 15 10 8 0 15 -4 15 -10z m40 -10
c0 -5 11 -10 25 -10 14 0 25 -4 25 -10 0 -5 -12 -10 -26 -10 -19 0 -25 -4 -22
-17 2 -12 11 -17 26 -15 12 2 22 -2 22 -8 0 -7 -14 -10 -37 -8 -30 2 -39 8
-44 28 l-7 25 -1 -27 c-2 -44 -31 -37 -31 7 0 28 4 35 19 35 11 0 23 5 26 10
3 6 10 10 16 10 5 0 9 -4 9 -10z m-230 -19 c0 -5 -5 -11 -10 -13 -6 -2 -12
-13 -13 -26 -2 -37 -27 -26 -27 13 0 31 3 35 25 35 14 0 25 -4 25 -9z m68 -28
c3 -31 1 -33 -26 -33 -32 0 -46 20 -36 52 4 14 13 18 32 16 22 -2 28 -9 30
-35z"/>
<path d="M3765 2150 c-3 -6 1 -13 10 -16 19 -8 30 0 20 15 -8 14 -22 14 -30 1z"/>
<path d="M3760 2060 c0 -5 11 -10 25 -10 14 0 25 5 25 10 0 6 -11 10 -25 10
-14 0 -25 -4 -25 -10z"/>
<path d="M3880 2150 c0 -5 7 -10 15 -10 8 0 15 5 15 10 0 6 -7 10 -15 10 -8 0
-15 -4 -15 -10z"/>
<path d="M3980 1895 c0 -8 5 -15 10 -15 6 0 10 7 10 15 0 8 -4 15 -10 15 -5 0
-10 -7 -10 -15z"/>
<path d="M4309 2338 c-6 -21 -5 -38 2 -38 5 0 9 -23 9 -51 0 -30 4 -48 10 -44
5 3 7 0 4 -8 -8 -21 12 -30 35 -15 31 19 51 -5 51 -63 0 -26 -4 -51 -10 -54
-6 -4 -10 13 -10 44 0 52 -8 65 -34 55 -12 -4 -16 -19 -16 -54 0 -27 -5 -50
-11 -52 -6 -2 -3 -21 10 -51 22 -51 45 -80 55 -70 3 4 6 2 6 -3 0 -5 15 -9 33
-9 29 0 32 -3 35 -32 2 -25 -1 -33 -12 -33 -9 0 -16 -5 -16 -11 0 -6 7 -8 16
-5 8 3 13 2 10 -3 -3 -5 1 -11 9 -15 8 -3 15 -1 15 5 0 6 10 8 23 4 17 -5 19
-4 7 4 -13 9 -8 15 11 13 3 0 6 14 7 33 2 29 0 33 -19 28 -16 -4 -20 -12 -16
-29 3 -16 0 -24 -9 -24 -9 0 -14 12 -14 35 0 32 2 35 30 35 20 0 30 5 30 15 0
9 10 15 26 15 26 0 54 20 54 40 0 6 12 22 27 36 l28 26 -28 -13 c-15 -7 -27
-16 -27 -21 0 -4 -15 -8 -33 -8 -41 0 -60 26 -47 69 4 16 6 39 3 51 -8 31 14
49 58 47 32 -1 38 -4 34 -19 -3 -10 -8 -27 -11 -38 -5 -19 -21 -25 -51 -21 -7
1 -13 -2 -13 -6 0 -5 15 -10 33 -11 17 -1 37 -10 44 -19 10 -13 11 -9 6 20 -8
50 2 82 30 94 22 10 25 18 26 73 1 34 4 66 7 71 3 5 -82 9 -200 9 -113 0 -206
-1 -207 -2z m205 -164 c10 -9 16 -33 16 -59 0 -41 -1 -43 -34 -47 -46 -5 -56
0 -56 28 0 19 8 29 35 40 43 17 36 38 -8 29 -30 -6 -31 -5 -13 10 25 19 40 19
60 -1z"/>
<path d="M4478 2123 c-22 -6 -31 -32 -13 -39 18 -7 45 13 45 32 0 14 -3 15
-32 7z"/>
<path d="M4310 2160 c-13 -9 -13 -10 0 -10 10 0 11 -3 4 -8 -9 -5 -9 -10 1
-18 9 -9 12 -6 13 17 0 16 0 29 -1 29 -1 0 -9 -5 -17 -10z"/>
<path d="M4574 2155 c-4 -9 -2 -21 4 -27 15 -15 44 -1 40 19 -4 23 -36 29 -44
8z"/>
<path d="M4677 2163 c-10 -9 -9 -23 2 -23 5 0 11 7 15 15 5 15 -5 20 -17 8z"/>
<path d="M4315 2090 c-3 -5 -1 -10 4 -10 6 0 11 5 11 10 0 6 -2 10 -4 10 -3 0
-8 -4 -11 -10z"/>
<path d="M4572 2073 c-6 -3 -10 -9 -6 -14 7 -12 64 -12 64 1 0 6 -3 10 -7 11
-5 0 -15 2 -23 3 -8 2 -21 1 -28 -1z"/>
<path d="M4230 1924 c0 -8 5 -12 10 -9 6 3 10 10 10 16 0 5 -4 9 -10 9 -5 0
-10 -7 -10 -16z"/>
<path d="M4570 1930 c0 -5 5 -10 10 -10 6 0 10 5 10 10 0 6 -4 10 -10 10 -5 0
-10 -4 -10 -10z"/>
<path d="M5148 1783 c12 -2 30 -2 40 0 9 3 -1 5 -23 4 -22 0 -30 -2 -17 -4z"/>
<path d="M5348 1783 c17 -2 47 -2 65 0 17 2 3 4 -33 4 -36 0 -50 -2 -32 -4z"/>
<path d="M5108 1763 c17 -2 47 -2 65 0 17 2 3 4 -33 4 -36 0 -50 -2 -32 -4z"/>
<path d="M5340 1761 l25 -8 -25 -5 c-14 -3 4 -5 40 -5 36 0 54 2 40 6 -19 4
-11 7 30 12 46 5 39 6 -40 6 -57 1 -85 -2 -70 -6z"/>
<path d="M5123 1743 c15 -2 37 -2 50 0 12 2 0 4 -28 4 -27 0 -38 -2 -22 -4z"/>
</g>
</svg>
